<svg xmlns="http://www.w3.org/2000/svg" xmlns:xlink="http://www.w3.org/1999/xlink" width="920" height="711.3"><rect width="920" height="711.3" rx="5" ry="5" class="a"/><svg y="0%" x="0%"><circle cx="20" cy="20" r="6" fill="#ff5f58"/><circle cx="40" cy="20" r="6" fill="#ffbd2e"/><circle cx="60" cy="20" r="6" fill="#18c132"/></svg><svg height="651.3" viewBox="0 0 88 65.13" width="880" x="15" xmlns="http://www.w3.org/2000/svg" xmlns:xlink="http://www.w3.org/1999/xlink" y="50"><style>@keyframes k{0%{transform:translateX(0)}3.7%{transform:translateX(-88px)}4.2%{transform:translateX(-352px)}4.3%{transform:translateX(-528px)}29.6%{transform:translateX(-616px)}31.8%{transform:translateX(-704px)}32.9%{transform:translateX(-792px)}34.7%{transform:translateX(-880px)}40.8%{transform:translateX(-968px)}43%{transform:translateX(-1056px)}48.1%{transform:translateX(-1144px)}52%{transform:translateX(-1232px)}53.1%{transform:translateX(-1320px)}55.9%{transform:translateX(-1408px)}67%{transform:translateX(-1584px)}67.1%{transform:translateX(-1672px)}73.9%{transform:translateX(-1760px)}74%{transform:translateX(-1848px)}75.1%{transform:translateX(-2112px)}76%{transform:translateX(-2200px)}76.1%{transform:translateX(-2288px)}77%{transform:translateX(-2464px)}78%{transform:translateX(-2640px)}79%{transform:translateX(-2816px)}80%{transform:translateX(-2992px)}81%{transform:translateX(-3168px)}82%{transform:translateX(-3344px)}83%{transform:translateX(-3520px)}83.5%{transform:translateX(-3784px)}83.6%{transform:translateX(-3872px)}83.9%{transform:translateX(-4224px)}to{transform:translateX(-4312px)}}.a{fill:#282d35}.g{fill:#d290e4}.h{fill:#a8cc8c}.i{fill:#b9c0cb}.m{fill:#e88388;font-weight:700}.n{fill:#66c2cd}</style><g font-size="1.67" font-family="Monaco,Consolas,Menlo,'Bitstream Vera Sans Mono','Powerline Symbols',monospace"><defs><symbol id="1"><text y="1.67" fill="#71bef2">~</text></symbol><symbol id="2"><text y="1.67" class="g">❯</text></symbol><symbol id="3"><text y="1.67" class="g">❯</text><text x="2.004" y="1.67" class="h">status-git</text></symbol><symbol id="4"><text y="1.67" class="h">✔</text><text x="2.004" y="1.67" class="i">Everything</text><text x="13.026" y="1.67" class="i">operating</text><text x="23.046" y="1.67" class="i">normally.</text></symbol><symbol id="a"><path fill="transparent" d="M0 0h88v30H0z"/></symbol></defs><path class="a" d="M0 0h88v65.13H0z"/><g style="animation-duration:8.063371s;animation-iteration-count:infinite;animation-name:k;animation-timing-function:steps(1,end)"><svg width="4400"><svg><use xlink:href="#a"/></svg><svg x="88"><use xlink:href="#a"/></svg><svg x="176"><use xlink:href="#a"/><use xlink:href="#1" y="2.171"/></svg><svg x="264"><use xlink:href="#a"/><use xlink:href="#1" y="2.171"/></svg><svg x="352"><use xlink:href="#a"/><use xlink:href="#1" y="2.171"/><use xlink:href="#2" y="4.342"/></svg><svg x="440"><use xlink:href="#a"/><use xlink:href="#1" y="2.171"/><use xlink:href="#2" y="4.342"/></svg><svg x="528"><use xlink:href="#a"/><use xlink:href="#1" y="2.171"/><use xlink:href="#2" y="4.342"/></svg><svg x="616"><use xlink:href="#a"/><use xlink:href="#1" y="2.171"/><text y="6.012" class="g">❯</text><text x="2.004" y="6.012" class="m">s</text></svg><svg x="704"><use xlink:href="#a"/><use xlink:href="#1" y="2.171"/><text y="6.012" class="g">❯</text><text x="2.004" y="6.012" class="m">st</text></svg><svg x="792"><use xlink:href="#a"/><use xlink:href="#1" y="2.171"/><text y="6.012" class="g">❯</text><text x="2.004" y="6.012" class="m">sta</text></svg><svg x="880"><use xlink:href="#a"/><use xlink:href="#1" y="2.171"/><text y="6.012" class="g">❯</text><text x="2.004" y="6.012" class="h">stat</text></svg><svg x="968"><use xlink:href="#a"/><use xlink:href="#1" y="2.171"/><text y="6.012" class="g">❯</text><text x="2.004" y="6.012" class="m">statu</text></svg><svg x="1056"><use xlink:href="#a"/><use xlink:href="#1" y="2.171"/><text y="6.012" class="g">❯</text><text x="2.004" y="6.012" class="m">status</text></svg><svg x="1144"><use xlink:href="#a"/><use xlink:href="#1" y="2.171"/><text y="6.012" class="g">❯</text><text x="2.004" y="6.012" class="m">status-</text></svg><svg x="1232"><use xlink:href="#a"/><use xlink:href="#1" y="2.171"/><text y="6.012" class="g">❯</text><text x="2.004" y="6.012" class="m">status-g</text></svg><svg x="1320"><use xlink:href="#a"/><use xlink:href="#1" y="2.171"/><text y="6.012" class="g">❯</text><text x="2.004" y="6.012" class="m">status-gi</text></svg><svg x="1408"><use xlink:href="#a"/><use xlink:href="#1" y="2.171"/><use xlink:href="#3" y="4.342"/></svg><svg x="1496"><use xlink:href="#a"/><use xlink:href="#1" y="2.171"/><use xlink:href="#3" y="4.342"/></svg><svg x="1584"><use xlink:href="#a"/><use xlink:href="#1" y="2.171"/><use xlink:href="#3" y="4.342"/></svg><svg x="1672"><use xlink:href="#a"/><use xlink:href="#1" y="2.171"/><use xlink:href="#3" y="4.342"/></svg><svg x="1760"><use xlink:href="#a"/><use xlink:href="#1" y="2.171"/><use xlink:href="#3" y="4.342"/></svg><svg x="1848"><use xlink:href="#a"/><use xlink:href="#1" y="2.171"/><use xlink:href="#3" y="4.342"/><text y="8.183" class="n">⠋</text><text x="2.004" y="8.183" class="i">Checking</text><text x="11.022" y="8.183" class="i">service</text><text x="19.038" y="8.183" class="i">status...</text></svg><svg x="1936"><use xlink:href="#a"/><use xlink:href="#1" y="2.171"/><use xlink:href="#3" y="4.342"/></svg><svg x="2024"><use xlink:href="#a"/><use xlink:href="#1" y="2.171"/><use xlink:href="#3" y="4.342"/></svg><svg x="2112"><use xlink:href="#a"/><use xlink:href="#1" y="2.171"/><use xlink:href="#3" y="4.342"/><text y="8.183" class="n">⠙</text><text x="2.004" y="8.183" class="i">Checking</text><text x="11.022" y="8.183" class="i">service</text><text x="19.038" y="8.183" class="i">status...</text></svg><svg x="2200"><use xlink:href="#a"/><use xlink:href="#1" y="2.171"/><use xlink:href="#3" y="4.342"/></svg><svg x="2288"><use xlink:href="#a"/><use xlink:href="#1" y="2.171"/><use xlink:href="#3" y="4.342"/><text y="8.183" class="n">⠹</text><text x="2.004" y="8.183" class="i">Checking</text><text x="11.022" y="8.183" class="i">service</text><text x="19.038" y="8.183" class="i">status...</text></svg><svg x="2376"><use xlink:href="#a"/><use xlink:href="#1" y="2.171"/><use xlink:href="#3" y="4.342"/></svg><svg x="2464"><use xlink:href="#a"/><use xlink:href="#1" y="2.171"/><use xlink:href="#3" y="4.342"/><text y="8.183" class="n">⠸</text><text x="2.004" y="8.183" class="i">Checking</text><text x="11.022" y="8.183" class="i">service</text><text x="19.038" y="8.183" class="i">status...</text></svg><svg x="2552"><use xlink:href="#a"/><use xlink:href="#1" y="2.171"/><use xlink:href="#3" y="4.342"/></svg><svg x="2640"><use xlink:href="#a"/><use xlink:href="#1" y="2.171"/><use xlink:href="#3" y="4.342"/><text y="8.183" class="n">⠼</text><text x="2.004" y="8.183" class="i">Checking</text><text x="11.022" y="8.183" class="i">service</text><text x="19.038" y="8.183" class="i">status...</text></svg><svg x="2728"><use xlink:href="#a"/><use xlink:href="#1" y="2.171"/><use xlink:href="#3" y="4.342"/></svg><svg x="2816"><use xlink:href="#a"/><use xlink:href="#1" y="2.171"/><use xlink:href="#3" y="4.342"/><text y="8.183" class="n">⠴</text><text x="2.004" y="8.183" class="i">Checking</text><text x="11.022" y="8.183" class="i">service</text><text x="19.038" y="8.183" class="i">status...</text></svg><svg x="2904"><use xlink:href="#a"/><use xlink:href="#1" y="2.171"/><use xlink:href="#3" y="4.342"/></svg><svg x="2992"><use xlink:href="#a"/><use xlink:href="#1" y="2.171"/><use xlink:href="#3" y="4.342"/><text y="8.183" class="n">⠦</text><text x="2.004" y="8.183" class="i">Checking</text><text x="11.022" y="8.183" class="i">service</text><text x="19.038" y="8.183" class="i">status...</text></svg><svg x="3080"><use xlink:href="#a"/><use xlink:href="#1" y="2.171"/><use xlink:href="#3" y="4.342"/></svg><svg x="3168"><use xlink:href="#a"/><use xlink:href="#1" y="2.171"/><use xlink:href="#3" y="4.342"/><text y="8.183" class="n">⠧</text><text x="2.004" y="8.183" class="i">Checking</text><text x="11.022" y="8.183" class="i">service</text><text x="19.038" y="8.183" class="i">status...</text></svg><svg x="3256"><use xlink:href="#a"/><use xlink:href="#1" y="2.171"/><use xlink:href="#3" y="4.342"/></svg><svg x="3344"><use xlink:href="#a"/><use xlink:href="#1" y="2.171"/><use xlink:href="#3" y="4.342"/><text y="8.183" class="n">⠇</text><text x="2.004" y="8.183" class="i">Checking</text><text x="11.022" y="8.183" class="i">service</text><text x="19.038" y="8.183" class="i">status...</text></svg><svg x="3432"><use xlink:href="#a"/><use xlink:href="#1" y="2.171"/><use xlink:href="#3" y="4.342"/></svg><svg x="3520"><use xlink:href="#a"/><use xlink:href="#1" y="2.171"/><use xlink:href="#3" y="4.342"/><text y="8.183" class="n">⠏</text><text x="2.004" y="8.183" class="i">Checking</text><text x="11.022" y="8.183" class="i">service</text><text x="19.038" y="8.183" class="i">status...</text></svg><svg x="3608"><use xlink:href="#a"/><use xlink:href="#1" y="2.171"/><use xlink:href="#3" y="4.342"/></svg><svg x="3696"><use xlink:href="#a"/><use xlink:href="#1" y="2.171"/><use xlink:href="#3" y="4.342"/><use xlink:href="#4" y="6.513"/></svg><svg x="3784"><use xlink:href="#a"/><use xlink:href="#1" y="2.171"/><use xlink:href="#3" y="4.342"/><use xlink:href="#4" y="6.513"/></svg><svg x="3872"><use xlink:href="#a"/><use xlink:href="#1" y="2.171"/><use xlink:href="#3" y="4.342"/><use xlink:href="#4" y="6.513"/></svg><svg x="3960"><use xlink:href="#a"/><use xlink:href="#1" y="2.171"/><use xlink:href="#3" y="4.342"/><use xlink:href="#4" y="6.513"/><use xlink:href="#1" y="10.855"/></svg><svg x="4048"><use xlink:href="#a"/><use xlink:href="#1" y="2.171"/><use xlink:href="#3" y="4.342"/><use xlink:href="#4" y="6.513"/><use xlink:href="#1" y="10.855"/></svg><svg x="4136"><use xlink:href="#a"/><use xlink:href="#1" y="2.171"/><use xlink:href="#3" y="4.342"/><use xlink:href="#4" y="6.513"/><use xlink:href="#1" y="10.855"/><use xlink:href="#2" y="13.026"/></svg><svg x="4224"><use xlink:href="#a"/><use xlink:href="#1" y="2.171"/><use xlink:href="#3" y="4.342"/><use xlink:href="#4" y="6.513"/><use xlink:href="#1" y="10.855"/><use xlink:href="#2" y="13.026"/></svg><svg x="4312"><use xlink:href="#a"/><use xlink:href="#1" y="2.171"/><use xlink:href="#3" y="4.342"/><use xlink:href="#4" y="6.513"/><use xlink:href="#1" y="10.855"/><use xlink:href="#2" y="13.026"/></svg></svg></g></g></svg></svg>